<svg width="112" height="19" viewBox="0 0 112 19" fill="none" xmlns="http://www.w3.org/2000/svg">
<path fill-rule="evenodd" clip-rule="evenodd" d="M55.9454 0.612181V18.3464H51.3104V12.8239L46.8012 18.4091L42.2043 12.7012V18.3464H37.657V0.612181L46.8012 11.5876L55.9454 0.612181ZM88.0052 0.612181V18.3464H83.3833V0.612181H88.0052ZM28.6172 0.612181V18.3464H24.0002V0.612181H28.6172ZM69.9682 0.612181V13.8772H74.3442V18.3464H65.5066V0.612181H69.9682ZM110.594 0.612181V18.3464H101.307C99.4444 18.3464 95.4427 17.4627 95.4427 13.2528C95.4427 9.04288 98.4049 8.60283 98.4049 8.60283C98.4049 8.60283 96.9749 7.81295 96.9749 5.23946C96.9749 2.66597 98.864 0.591797 102.637 0.591797C105.152 0.591797 107.804 0.598592 110.594 0.612181ZM9.30329 0.612181C13.0762 0.612181 14.9687 2.60491 14.9687 5.1784C14.9687 7.75189 13.5387 8.54177 13.5387 8.54177C13.5387 8.54177 16.5009 8.98182 16.5009 13.1917C16.5009 17.4017 12.4992 18.2854 10.6365 18.2854H1.40874L1.40527 0.632565C4.15536 0.618976 6.78804 0.612181 9.30329 0.612181ZM105.836 11.5813H102.143C101.237 11.5813 100.259 11.9426 100.259 13.1815C100.259 14.4203 101.237 14.9243 102.121 14.9243H105.836V11.5813ZM9.80104 11.5202H6.10732V14.8632H9.82215C10.7063 14.8632 11.6848 14.3592 11.6848 13.1204C11.6848 11.8816 10.7063 11.5202 9.80104 11.5202ZM105.811 4.47508H102.978C102.247 4.47508 101.843 5.03054 101.843 5.66245C101.843 6.29436 102.247 6.83963 102.899 6.83963H105.801L105.811 4.47508ZM8.96577 4.43356H6.13216L6.14271 6.79811H9.04493C9.69708 6.79811 10.1003 6.25284 10.1003 5.62093C10.1003 4.98903 9.69708 4.43356 8.96577 4.43356Z" fill="#00AFA1"/>
</svg>
